<svg xmlns="http://www.w3.org/2000/svg" width="18" height="18" viewBox="0 0 18 18">
    <path fill="#FFF" fill-rule="nonzero" d="M18 10.434v6.578h-3.859v-6.137c0-1.541-.557-2.594-1.954-2.594-1.066 0-1.7.709-1.98 1.395-.101.245-.127.585-.127.93v6.406H6.22s.052-10.395 0-11.47h3.86v1.625c-.008.012-.019.025-.026.037h.026v-.037c.513-.78 1.427-1.895 3.478-1.895 2.539 0 4.442 1.64 4.442 5.162zM2.184.012C.864.012 0 .868 0 1.993c0 1.102.839 1.983 2.133 1.983h.025c1.346 0 2.183-.881 2.183-1.983C4.315.868 3.504.012 2.184.012zm-1.955 17h3.858V5.542H.229v11.47z"/>
</svg>
