<svg xmlns="http://www.w3.org/2000/svg" width="19" height="16" viewBox="0 0 19 16">
    <path fill="#FFF" fill-rule="nonzero" d="M19 2.605a7.957 7.957 0 0 1-2.239.595 3.819 3.819 0 0 0 1.714-2.094A7.944 7.944 0 0 1 16 2.024 3.948 3.948 0 0 0 13.154.83C11 .829 9.256 2.525 9.256 4.616c0 .297.034.585.101.863a11.176 11.176 0 0 1-8.035-3.957 3.689 3.689 0 0 0-.527 1.904c0 1.313.688 2.473 1.734 3.152a3.958 3.958 0 0 1-1.766-.475v.048c0 1.835 1.344 3.366 3.127 3.713a3.992 3.992 0 0 1-1.76.066c.496 1.504 1.935 2.599 3.641 2.63A7.968 7.968 0 0 1 .93 14.18c-.314 0-.625-.017-.929-.053a11.263 11.263 0 0 0 5.975 1.702c7.17 0 11.09-5.77 11.09-10.775 0-.164-.003-.327-.01-.49A7.784 7.784 0 0 0 19 2.605z"/>
</svg>
