<svg xmlns="http://www.w3.org/2000/svg" width="22" height="23" viewBox="0 0 22 23">
    <path fill="#212529" fill-rule="nonzero" d="M11 .5C4.925.5 0 5.425 0 11.5c0 6.074 4.925 11 11 11s11-4.925 11-11-4.925-11-11-11zM2.987 15.643c0-3.436 3.018-3.435 3.688-4.334l.076-.41c-.94-.477-1.605-1.626-1.605-2.97 0-1.772 1.152-3.208 2.573-3.208 1.12 0 2.069.892 2.423 2.135-1.423.453-2.476 1.996-2.476 3.83 0 1.264.498 2.425 1.315 3.163a12.91 12.91 0 0 1-.403.195c-.659.309-1.573.739-2.232 1.6H2.987zm8.046 2.758H6.268c0-3.436 3.017-3.435 3.687-4.334l.077-.41c-.941-.476-1.605-1.626-1.605-2.97 0-1.772 1.152-3.208 2.573-3.208 1.42 0 2.573 1.436 2.573 3.208 0 1.333-.652 2.475-1.58 2.96l.087.465c.734.855 3.652.91 3.652 4.29h-4.699zm4.62-2.758c-.66-.86-1.573-1.29-2.232-1.6-.13-.06-.274-.128-.402-.194.817-.738 1.315-1.902 1.315-3.162 0-1.835-1.052-3.378-2.476-3.83.355-1.244 1.304-2.136 2.423-2.136 1.421 0 2.573 1.436 2.573 3.207 0 1.334-.652 2.476-1.58 2.96l.087.466c.735.855 3.652.91 3.652 4.29h-3.36z"/>
</svg>
