<svg xmlns="http://www.w3.org/2000/svg" width="22" height="22" viewBox="0 0 22 22">
    <path fill="#212529" fill-rule="nonzero" d="M12.58 21.887l.013-7.639h2.823c.254 0 .468-.19.498-.442l.312-2.635a.501.501 0 0 0-.497-.56h-3.15V8.405c0-1 .277-1.681 1.71-1.681h1.328c.277 0 .501-.225.501-.502V4.001a.501.501 0 0 0-.501-.501h-2.163c-2.636 0-4.44 1.609-4.44 4.564v2.546H6.892a.501.501 0 0 0-.501.503l.01 2.636c.001.276.225.499.501.499h2.124l-.013 7.573C3.887 20.886 0 16.396 0 11 0 4.925 4.925 0 11 0s11 4.925 11 11c0 5.538-4.094 10.121-9.42 10.887z"/>
</svg>
