<svg xmlns="http://www.w3.org/2000/svg" width="26" height="21" viewBox="0 0 26 21">
    <path fill="#212529" fill-rule="evenodd" d="M25.606 2.458a10.5 10.5 0 0 1-3.016.826 5.27 5.27 0 0 0 2.31-2.9c-1.019.6-2.142 1.037-3.339 1.273A5.241 5.241 0 0 0 17.727 0a5.25 5.25 0 0 0-5.117 6.44A14.92 14.92 0 0 1 1.784.96a5.202 5.202 0 0 0-.71 2.637c0 1.82.928 3.426 2.336 4.366a5.258 5.258 0 0 1-2.38-.659v.066a5.253 5.253 0 0 0 4.214 5.144c-.44.119-.905.184-1.385.184-.339 0-.667-.033-.988-.097a5.255 5.255 0 0 0 4.905 3.644 10.547 10.547 0 0 1-6.523 2.242c-.424 0-.842-.026-1.253-.072a14.861 14.861 0 0 0 8.052 2.36c9.663 0 14.945-7.994 14.945-14.926l-.018-.68a10.483 10.483 0 0 0 2.627-2.71z"/>
</svg>
